<svg width="109" height="39" viewBox="0 0 109 39" fill="none" xmlns="http://www.w3.org/2000/svg">
<path d="M18.7793 36.5938C18.7793 36.8307 18.6693 37.0339 18.4492 37.2031C18.2292 37.3724 17.9668 37.5078 17.6621 37.6094C17.3574 37.7109 17.0443 37.7871 16.7227 37.8379C16.418 37.8887 16.1725 37.9141 15.9863 37.9141C15.9355 37.9141 15.8932 37.9225 15.8594 37.9395C15.8255 37.9564 15.7832 37.9479 15.7324 37.9141C15.3939 37.8464 15.0977 37.7279 14.8438 37.5586C14.5898 37.4062 14.3613 37.2201 14.1582 37C13.9551 36.7969 13.7604 36.5684 13.5742 36.3145C13.388 36.0605 13.1934 35.7982 12.9902 35.5273C11.6361 33.8177 10.3581 32.0658 9.15625 30.2715C7.97135 28.4603 6.89648 26.556 5.93164 24.5586L5.62695 24.9141V34.7148C5.62695 34.901 5.61849 35.1126 5.60156 35.3496C5.58464 35.5697 5.54232 35.7812 5.47461 35.9844C5.4069 36.1875 5.30534 36.3568 5.16992 36.4922C5.03451 36.6276 4.84831 36.6953 4.61133 36.6953C4.06966 36.6953 3.62109 36.6107 3.26562 36.4414C2.92708 36.2721 2.65625 36.0436 2.45312 35.7559C2.26693 35.4512 2.13997 35.0957 2.07227 34.6895C2.00456 34.2832 1.9707 33.8346 1.9707 33.3438C1.9707 31.7526 1.95378 30.1699 1.91992 28.5957C1.88607 27.0215 1.86914 25.4388 1.86914 23.8477C1.86914 23.1536 1.89453 22.4766 1.94531 21.8164C1.99609 21.1562 2.02148 20.4792 2.02148 19.7852C2.02148 17.3646 1.92839 14.9609 1.74219 12.5742C1.55599 10.1706 1.36133 7.76693 1.1582 5.36328C1.10742 4.80469 1.04818 4.24609 0.980469 3.6875C0.929688 3.12891 0.904297 2.57031 0.904297 2.01172C0.904297 1.60547 1.03971 1.33464 1.31055 1.19922C1.58138 1.0638 1.86914 0.996094 2.17383 0.996094C3.12174 0.996094 3.86654 1.19076 4.4082 1.58008C4.94987 1.9694 5.2207 2.67188 5.2207 3.6875C5.2207 5.22786 5.27148 6.73438 5.37305 8.20703C5.45768 10.0521 5.50846 11.8802 5.52539 13.6914C5.55924 15.5026 5.5931 17.3307 5.62695 19.1758C7.45508 16.8906 8.89388 14.4362 9.94336 11.8125C10.9928 9.17188 11.7884 6.41276 12.3301 3.53516C12.347 3.36589 12.3724 3.1543 12.4062 2.90039C12.457 2.64648 12.5163 2.40104 12.584 2.16406C12.6686 1.91016 12.7786 1.69857 12.9141 1.5293C13.0664 1.3431 13.2611 1.25 13.498 1.25C13.7689 1.25 14.0482 1.30078 14.3359 1.40234C14.6237 1.48698 14.8776 1.61393 15.0977 1.7832C15.3346 1.95247 15.5208 2.1556 15.6562 2.39258C15.8086 2.62956 15.8848 2.89193 15.8848 3.17969C15.8848 3.92448 15.7917 4.64388 15.6055 5.33789C15.4362 6.0319 15.2585 6.73438 15.0723 7.44531C14.7168 8.88411 14.3359 10.2129 13.9297 11.4316C13.5404 12.6504 13.0833 13.8268 12.5586 14.9609C12.0508 16.0781 11.4583 17.1868 10.7812 18.2871C10.1042 19.3704 9.30013 20.4961 8.36914 21.6641L9.43555 23.7969C10.3327 25.5065 11.3314 27.1738 12.4316 28.7988C13.5319 30.4069 14.7337 31.9388 16.0371 33.3945C16.4772 33.8854 16.9258 34.3424 17.3828 34.7656C17.8568 35.1719 18.2715 35.6458 18.627 36.1875C18.7285 36.2891 18.7793 36.4245 18.7793 36.5938Z" fill="#FF0000"/>
<path d="M22.0547 15.6465C22.0547 15.9342 21.987 16.1458 21.8516 16.2812C21.7331 16.3997 21.5046 16.459 21.166 16.459C21.0137 16.459 20.7767 16.4421 20.4551 16.4082C20.1335 16.3574 19.8034 16.2897 19.4648 16.2051C19.1432 16.1204 18.8555 16.002 18.6016 15.8496C18.3646 15.6973 18.2461 15.5111 18.2461 15.291C18.2461 15.2233 18.2715 15.0371 18.3223 14.7324C18.373 14.4108 18.4323 14.0723 18.5 13.7168C18.5846 13.3613 18.6523 13.0397 18.7031 12.752C18.7708 12.4642 18.8216 12.3034 18.8555 12.2695V12.2949C18.9401 12.1595 19.0417 12.0749 19.1602 12.041C19.2786 12.0072 19.3971 11.9902 19.5156 11.9902C19.668 11.9902 19.8626 12.0156 20.0996 12.0664C20.3535 12.1003 20.599 12.1595 20.8359 12.2441C21.0898 12.3118 21.3184 12.4049 21.5215 12.5234C21.7246 12.6419 21.8516 12.7689 21.9023 12.9043C21.9531 13.0397 21.9785 13.2259 21.9785 13.4629C21.9954 13.6829 21.9954 13.8861 21.9785 14.0723C21.9785 14.14 21.9701 14.2246 21.9531 14.3262C21.9531 14.4108 21.9531 14.4785 21.9531 14.5293C21.9531 14.6139 21.9531 14.6986 21.9531 14.7832C21.9701 14.8678 21.987 14.9525 22.0039 15.0371C22.0208 15.1217 22.0293 15.2148 22.0293 15.3164C22.0462 15.418 22.0547 15.528 22.0547 15.6465ZM22.9941 35.8828C22.9941 36.2721 22.901 36.5514 22.7148 36.7207C22.5456 36.873 22.2663 36.9492 21.877 36.9492C21.6738 36.9492 21.4453 36.9238 21.1914 36.873C20.9544 36.8223 20.7174 36.7546 20.4805 36.6699C20.2435 36.5684 20.0234 36.4499 19.8203 36.3145C19.6172 36.179 19.4648 36.0267 19.3633 35.8574C19.2956 35.7559 19.2363 35.4427 19.1855 34.918C19.1348 34.3932 19.0924 33.7415 19.0586 32.9629C19.0417 32.1842 19.0163 31.3125 18.9824 30.3477C18.9655 29.3828 18.9486 28.4095 18.9316 27.4277C18.9316 26.446 18.9316 25.4896 18.9316 24.5586C18.9316 23.6276 18.9316 22.8151 18.9316 22.1211V20.166C18.9316 19.9967 18.9316 19.8275 18.9316 19.6582C18.9486 19.4889 18.9824 19.3451 19.0332 19.2266C19.1009 19.0911 19.194 18.9811 19.3125 18.8965C19.4479 18.8118 19.6341 18.7695 19.8711 18.7695C20.6159 18.7695 21.1576 18.9811 21.4961 19.4043C21.8516 19.8105 22.0716 20.3607 22.1562 21.0547C22.2409 22.0872 22.3001 23.1198 22.334 24.1523C22.3848 25.168 22.4271 26.2005 22.4609 27.25C22.4948 28.1979 22.5202 29.1374 22.5371 30.0684C22.571 30.9824 22.6302 31.8965 22.7148 32.8105C22.7318 32.9967 22.7487 33.1745 22.7656 33.3438C22.7826 33.513 22.8079 33.6823 22.8418 33.8516C22.8757 34.1901 22.9095 34.5286 22.9434 34.8672C22.9772 35.1888 22.9941 35.5273 22.9941 35.8828Z" fill="#0047FF"/>
<path d="M36.6289 36.2129C36.6289 36.3991 36.5866 36.5599 36.502 36.6953C36.4173 36.8138 36.3073 36.9154 36.1719 37C36.0534 37.0677 35.918 37.1185 35.7656 37.1523C35.6302 37.1862 35.4948 37.2031 35.3594 37.2031C35.1562 37.2031 34.9362 37.1777 34.6992 37.127C34.4622 37.0762 34.2253 37.0085 33.9883 36.9238C33.7513 36.8223 33.5312 36.7038 33.3281 36.5684C33.1419 36.416 32.998 36.2467 32.8965 36.0605C32.7949 35.8743 32.7188 35.6458 32.668 35.375C32.6341 35.0872 32.6003 34.7995 32.5664 34.5117C32.3971 34.918 32.194 35.3158 31.957 35.7051C31.737 36.0944 31.4661 36.4414 31.1445 36.7461C30.8229 37.0339 30.459 37.2624 30.0527 37.4316C29.6634 37.6178 29.2233 37.7109 28.7324 37.7109C27.8691 37.7109 27.1667 37.5078 26.625 37.1016C26.1003 36.6953 25.6855 36.1875 25.3809 35.5781C25.0931 34.9518 24.8984 34.2747 24.7969 33.5469C24.7122 32.8021 24.6699 32.0911 24.6699 31.4141C24.6699 30.8555 24.6953 30.2207 24.7461 29.5098C24.7969 28.7988 24.8646 28.071 24.9492 27.3262C25.0339 26.5814 25.1354 25.862 25.2539 25.168C25.3724 24.457 25.4993 23.8307 25.6348 23.2891C25.804 22.6628 26.0072 21.9772 26.2441 21.2324C26.498 20.4707 26.8112 19.7682 27.1836 19.125C27.5729 18.4648 28.0469 17.9062 28.6055 17.4492C29.1641 16.9922 29.8327 16.7383 30.6113 16.6875C30.5605 15.3164 30.4844 14.0553 30.3828 12.9043C30.2982 11.7363 30.2051 10.543 30.1035 9.32422L29.8496 6.50586L29.748 5.49023C29.7142 5.2194 29.6888 4.94857 29.6719 4.67773C29.6549 4.38997 29.6465 4.11068 29.6465 3.83984C29.6465 3.45052 29.748 3.17969 29.9512 3.02734C30.1712 2.875 30.4505 2.79883 30.7891 2.79883C31.5339 2.79883 32.1009 2.90885 32.4902 3.12891C32.8796 3.34896 33.1504 3.64518 33.3027 4.01758C33.472 4.38997 33.5651 4.83008 33.582 5.33789C33.599 5.82878 33.6074 6.36198 33.6074 6.9375C33.6074 7.3099 33.6497 7.73307 33.7344 8.20703L33.8613 9.14648L34.0645 11.7363C34.0983 12.1426 34.1322 12.5488 34.166 12.9551C34.1999 13.3613 34.2337 13.7676 34.2676 14.1738L34.8008 19.6328L35.8164 29.8398L35.8926 30.7793C35.9603 31.4733 36.0195 32.1927 36.0703 32.9375C36.138 33.6823 36.2565 34.4186 36.4258 35.1465C36.4766 35.3327 36.5189 35.5104 36.5527 35.6797C36.6035 35.849 36.6289 36.0267 36.6289 36.2129ZM30.7129 21.3594C30.7129 21.1732 30.7044 20.9701 30.6875 20.75C30.6875 20.513 30.6875 20.293 30.6875 20.0898V19.4043C30.569 19.5736 30.4167 19.8105 30.2305 20.1152C30.0443 20.403 29.9004 20.6654 29.7988 20.9023C29.528 21.4948 29.2826 22.2565 29.0625 23.1875C28.8424 24.1016 28.6478 25.0664 28.4785 26.082C28.3262 27.0807 28.2077 28.0625 28.123 29.0273C28.0384 29.9753 27.9961 30.7708 27.9961 31.4141C27.9961 31.651 27.9961 31.9219 27.9961 32.2266C28.013 32.5312 28.0469 32.8444 28.0977 33.166C28.1484 33.4707 28.2246 33.7669 28.3262 34.0547C28.4277 34.3424 28.5632 34.5794 28.7324 34.7656C28.9863 34.444 29.2148 33.9531 29.418 33.293C29.6211 32.6159 29.7904 31.8542 29.9258 31.0078C30.0781 30.1445 30.2051 29.2389 30.3066 28.291C30.4082 27.3431 30.4844 26.429 30.5352 25.5488C30.6029 24.6517 30.6452 23.8392 30.6621 23.1113C30.696 22.3665 30.7129 21.7826 30.7129 21.3594ZM108.891 32.3535C108.891 32.8613 108.747 33.3861 108.459 33.9277C108.188 34.4694 107.833 34.9688 107.393 35.4258C106.952 35.8659 106.445 36.2298 105.869 36.5176C105.311 36.8053 104.752 36.9492 104.193 36.9492C103.398 36.9492 102.712 36.7969 102.137 36.4922C101.561 36.1706 101.062 35.7474 100.639 35.2227C100.215 34.681 99.8685 34.0716 99.5977 33.3945C99.3438 32.7174 99.1406 32.0234 98.9883 31.3125C98.8359 30.5846 98.7259 29.8652 98.6582 29.1543C98.6074 28.4264 98.582 27.7663 98.582 27.1738C98.582 26.666 98.6074 26.0651 98.6582 25.3711C98.7259 24.6771 98.8275 23.9577 98.9629 23.2129C99.1152 22.4681 99.3184 21.7318 99.5723 21.0039C99.8262 20.276 100.139 19.6243 100.512 19.0488C100.901 18.4733 101.358 18.0078 101.883 17.6523C102.424 17.2969 103.042 17.1191 103.736 17.1191C104.278 17.1191 104.76 17.2292 105.184 17.4492C105.624 17.6693 105.988 17.9655 106.275 18.3379C106.58 18.6934 106.809 19.1081 106.961 19.582C107.13 20.056 107.215 20.5469 107.215 21.0547C107.215 21.7148 107.062 22.4342 106.758 23.2129C106.453 23.9915 106.055 24.7448 105.564 25.4727C105.09 26.2005 104.549 26.8607 103.939 27.4531C103.347 28.0286 102.755 28.4688 102.162 28.7734C102.196 29.0781 102.264 29.5267 102.365 30.1191C102.467 30.6947 102.602 31.2702 102.771 31.8457C102.958 32.4212 103.169 32.9206 103.406 33.3438C103.66 33.7669 103.956 33.9785 104.295 33.9785C104.464 33.9785 104.608 33.9277 104.727 33.8262C104.862 33.7246 104.98 33.5892 105.082 33.4199C105.184 33.2507 105.268 33.0645 105.336 32.8613C105.421 32.6582 105.497 32.4635 105.564 32.2773L105.717 31.9219C105.751 31.8711 105.768 31.8372 105.768 31.8203C105.785 31.8034 105.801 31.778 105.818 31.7441C105.937 31.5241 106.047 31.321 106.148 31.1348C106.267 30.9486 106.428 30.7878 106.631 30.6523H106.605C106.673 30.5846 106.741 30.5508 106.809 30.5508C106.893 30.5339 106.969 30.5254 107.037 30.5254C107.223 30.5254 107.426 30.5846 107.646 30.7031C107.867 30.8216 108.07 30.974 108.256 31.1602C108.442 31.3294 108.594 31.5241 108.713 31.7441C108.831 31.9473 108.891 32.1504 108.891 32.3535ZM103.863 21.1562C103.863 20.987 103.855 20.8092 103.838 20.623C103.821 20.4368 103.779 20.276 103.711 20.1406C103.474 20.4284 103.262 20.7754 103.076 21.1816C102.907 21.571 102.763 21.9857 102.645 22.4258C102.526 22.849 102.424 23.2806 102.34 23.7207C102.272 24.1608 102.221 24.5671 102.188 24.9395C102.628 24.4147 103.017 23.8223 103.355 23.1621C103.694 22.485 103.863 21.8164 103.863 21.1562Z" fill="#7CFC00"/>
<path d="M47.0137 18.3887C47.0137 18.5918 46.9375 18.7611 46.7852 18.8965C46.6497 19.0319 46.4805 19.1504 46.2773 19.252C46.0742 19.3366 45.8626 19.3958 45.6426 19.4297C45.4395 19.4635 45.2702 19.4805 45.1348 19.4805C44.9316 19.4805 44.737 19.4635 44.5508 19.4297C44.3646 19.3789 44.1784 19.3281 43.9922 19.2773C43.806 19.2266 43.6283 19.1842 43.459 19.1504C43.2897 19.0996 43.112 19.0742 42.9258 19.0742C42.6719 19.0742 42.418 19.1165 42.1641 19.2012C41.9102 19.2858 41.6816 19.4043 41.4785 19.5566C41.2754 19.709 41.1061 19.8952 40.9707 20.1152C40.8522 20.3353 40.793 20.5807 40.793 20.8516C40.793 21.2578 40.8776 21.6641 41.0469 22.0703C41.2161 22.4596 41.4362 22.8574 41.707 23.2637C41.9948 23.6699 42.3164 24.0846 42.6719 24.5078C43.0443 24.9141 43.4336 25.3288 43.8398 25.752C44.3307 26.2936 44.8216 26.8438 45.3125 27.4023C45.8203 27.9609 46.2689 28.5449 46.6582 29.1543C47.0645 29.7637 47.3945 30.4069 47.6484 31.084C47.9023 31.7611 48.0293 32.472 48.0293 33.2168C48.0293 33.86 47.9193 34.4355 47.6992 34.9434C47.4961 35.4512 47.1999 35.8828 46.8105 36.2383C46.4382 36.5938 45.9811 36.8646 45.4395 37.0508C44.9147 37.2539 44.3392 37.3555 43.7129 37.3555C43.5436 37.3555 43.2812 37.3216 42.9258 37.2539C42.5872 37.1862 42.1979 37.0931 41.7578 36.9746C41.3177 36.8392 40.8607 36.6953 40.3867 36.543C39.9297 36.3906 39.5065 36.2298 39.1172 36.0605C38.7448 35.8743 38.4316 35.6966 38.1777 35.5273C37.9408 35.3411 37.8223 35.1719 37.8223 35.0195C37.8223 34.8164 37.9154 34.6133 38.1016 34.4102C38.2878 34.1901 38.5078 33.9954 38.7617 33.8262C39.0156 33.64 39.278 33.4876 39.5488 33.3691C39.8366 33.2507 40.0736 33.1914 40.2598 33.1914C40.5137 33.1914 40.776 33.2507 41.0469 33.3691C41.3346 33.4876 41.6224 33.623 41.9102 33.7754C42.2318 33.9447 42.5534 34.097 42.875 34.2324C43.2135 34.3678 43.5605 34.4355 43.916 34.4355C44.1868 34.4355 44.3392 34.3424 44.373 34.1562C44.4238 33.9701 44.4492 33.7585 44.4492 33.5215C44.4492 32.929 44.3477 32.3704 44.1445 31.8457C43.9414 31.304 43.679 30.7793 43.3574 30.2715C43.0358 29.7637 42.6634 29.2728 42.2402 28.7988C41.8171 28.3079 41.3939 27.8255 40.9707 27.3516C40.5306 26.8776 40.099 26.4036 39.6758 25.9297C39.2695 25.4557 38.9056 24.9733 38.584 24.4824C38.2624 23.9746 38 23.4583 37.7969 22.9336C37.6107 22.4089 37.5176 21.8503 37.5176 21.2578C37.5176 20.5299 37.6784 19.8783 38 19.3027C38.3216 18.7103 38.7363 18.2025 39.2441 17.7793C39.7689 17.3561 40.3529 17.0345 40.9961 16.8145C41.6562 16.5775 42.3164 16.459 42.9766 16.459C43.1966 16.459 43.5352 16.5098 43.9922 16.6113C44.4492 16.696 44.8978 16.8229 45.3379 16.9922C45.778 17.1615 46.1673 17.3646 46.5059 17.6016C46.8444 17.8385 47.0137 18.1009 47.0137 18.3887Z" fill="#FFA500"/>
<path d="M71.5664 34.1562C71.5664 34.6471 71.4395 35.1042 71.1855 35.5273C70.9486 35.9505 70.6016 36.2552 70.1445 36.4414C69.9922 36.5091 69.6621 36.5684 69.1543 36.6191C68.6465 36.653 68.0371 36.6868 67.3262 36.7207C66.6152 36.7546 65.8535 36.7799 65.041 36.7969C64.2285 36.8138 63.4499 36.8307 62.7051 36.8477C61.9603 36.8477 61.3001 36.8477 60.7246 36.8477C60.1491 36.8477 59.7344 36.8477 59.4805 36.8477C59.3789 37.0339 59.235 37.1862 59.0488 37.3047C58.8626 37.4401 58.651 37.5078 58.4141 37.5078C58.194 37.5078 57.9316 37.4486 57.627 37.3301C57.3223 37.2285 57.026 37.0846 56.7383 36.8984C56.4674 36.7122 56.2305 36.5007 56.0273 36.2637C55.8242 36.0267 55.7227 35.7812 55.7227 35.5273C55.7227 35.3073 55.7734 35.0195 55.875 34.6641C55.9766 34.3086 56.0951 33.9447 56.2305 33.5723C56.3828 33.1829 56.5267 32.8021 56.6621 32.4297C56.7975 32.0573 56.9076 31.7526 56.9922 31.5156L62.0703 16.6875L64.7617 8.91797C65.0664 8.05469 65.3542 7.19141 65.625 6.32812C65.9128 5.44792 66.2513 4.58464 66.6406 3.73828C66.099 3.77214 65.5573 3.79753 65.0156 3.81445C64.474 3.83138 63.9323 3.83984 63.3906 3.83984C63.2383 3.83984 62.9674 3.83984 62.5781 3.83984C62.2057 3.83984 61.7741 3.83984 61.2832 3.83984C60.8092 3.82292 60.3014 3.81445 59.7598 3.81445C59.235 3.79753 58.7357 3.7806 58.2617 3.76367C57.8047 3.72982 57.4069 3.69596 57.0684 3.66211C56.7467 3.62826 56.5521 3.58594 56.4844 3.53516C56.2474 3.41667 56.1289 3.23047 56.1289 2.97656C56.1289 2.48568 56.2897 2.10482 56.6113 1.83398C56.9329 1.54622 57.3223 1.33464 57.7793 1.19922C58.2363 1.0638 58.7103 0.979167 59.2012 0.945312C59.709 0.911458 60.1406 0.894531 60.4961 0.894531C60.9023 0.894531 61.3086 0.911458 61.7148 0.945312C62.1211 0.979167 62.5273 0.996094 62.9336 0.996094C63.7799 0.996094 64.6178 0.96224 65.4473 0.894531C66.2767 0.826823 67.0977 0.792969 67.9102 0.792969C68.1979 0.792969 68.5111 0.826823 68.8496 0.894531C69.1882 0.945312 69.4928 1.04688 69.7637 1.19922C70.0514 1.33464 70.2884 1.52083 70.4746 1.75781C70.6608 1.99479 70.7539 2.29948 70.7539 2.67188C70.7539 2.97656 70.6947 3.25586 70.5762 3.50977C70.4577 3.74674 70.3307 4.00911 70.1953 4.29688C69.6029 5.73568 69.0781 7.18294 68.6211 8.63867C68.1641 10.0775 67.6901 11.5247 67.1992 12.9805C66.0312 16.4844 64.8887 19.9798 63.7715 23.4668C62.6712 26.9368 61.5456 30.4323 60.3945 33.9531C61.0885 33.9193 61.7826 33.8939 62.4766 33.877C63.1706 33.8431 63.8646 33.8008 64.5586 33.75C65.5234 33.6654 66.4883 33.5553 67.4531 33.4199C68.418 33.2676 69.3997 33.1914 70.3984 33.1914C70.7031 33.1914 70.974 33.2676 71.2109 33.4199C71.4479 33.5553 71.5664 33.8008 71.5664 34.1562Z" fill="#FF06C8"/>
<path d="M83.3477 26.5898C83.3477 28.0625 83.2207 29.5352 82.9668 31.0078C82.7298 32.4635 82.2305 33.8431 81.4688 35.1465C81.2318 35.5358 80.9609 35.9167 80.6562 36.2891C80.3516 36.6445 80.013 36.9661 79.6406 37.2539C79.2852 37.5586 78.8874 37.7956 78.4473 37.9648C78.0241 38.151 77.5755 38.2441 77.1016 38.2441C76.3568 38.2441 75.7051 38.0664 75.1465 37.7109C74.6048 37.3724 74.1309 36.9238 73.7246 36.3652C73.3353 35.7897 73.0052 35.1465 72.7344 34.4355C72.4805 33.7077 72.2773 32.9714 72.125 32.2266C71.9896 31.4648 71.888 30.7285 71.8203 30.0176C71.7695 29.3066 71.7441 28.6803 71.7441 28.1387C71.7441 27.5293 71.7695 26.8607 71.8203 26.1328C71.8711 25.4049 71.9557 24.6602 72.0742 23.8984C72.2096 23.1367 72.3789 22.3835 72.582 21.6387C72.8021 20.8939 73.0814 20.1999 73.4199 19.5566C73.7585 18.8965 74.1647 18.3125 74.6387 17.8047C75.1126 17.2799 75.6628 16.8652 76.2891 16.5605V16.5859C76.8307 16.2982 77.3724 16.1543 77.9141 16.1543C78.2526 16.1543 78.515 16.2305 78.7012 16.3828C78.8874 16.5182 78.972 16.7552 78.9551 17.0938C79.8861 17.263 80.6393 17.7116 81.2148 18.4395C81.7904 19.1673 82.2305 20.0137 82.5352 20.9785C82.8568 21.9434 83.0684 22.9336 83.1699 23.9492C83.2884 24.9648 83.3477 25.8451 83.3477 26.5898ZM77.6094 20.2422C77.3216 20.2422 77.0508 20.1322 76.7969 19.9121C76.4753 20.403 76.2044 20.9701 75.9844 21.6133C75.7643 22.2396 75.5866 22.8913 75.4512 23.5684C75.3327 24.2285 75.248 24.8971 75.1973 25.5742C75.1465 26.2513 75.1211 26.8861 75.1211 27.4785C75.1211 27.9694 75.1465 28.6042 75.1973 29.3828C75.248 30.1445 75.3411 30.9147 75.4766 31.6934C75.6289 32.472 75.832 33.1999 76.0859 33.877C76.3568 34.554 76.7038 35.0534 77.127 35.375C77.6517 35.0703 78.0833 34.5879 78.4219 33.9277C78.7773 33.2507 79.0566 32.5143 79.2598 31.7188C79.4629 30.9232 79.5983 30.1191 79.666 29.3066C79.7507 28.4941 79.793 27.8001 79.793 27.2246C79.793 26.8014 79.7676 26.2513 79.7168 25.5742C79.666 24.8971 79.5814 24.2116 79.4629 23.5176C79.3444 22.8066 79.1751 22.1465 78.9551 21.5371C78.752 20.9277 78.4896 20.4707 78.168 20.166C78.0156 20.2168 77.8294 20.2422 77.6094 20.2422Z" fill="#00D1FF"/>
<path d="M89.3906 36.873C89.3906 37.2624 89.2721 37.5163 89.0352 37.6348C88.8151 37.7533 88.5443 37.8125 88.2227 37.8125C87.9349 37.8125 87.6471 37.7871 87.3594 37.7363C87.0885 37.7025 86.8262 37.6263 86.5723 37.5078C86.3353 37.3893 86.1237 37.2285 85.9375 37.0254C85.7682 36.8223 85.6497 36.5599 85.582 36.2383C85.3451 35.2227 85.2096 34.2324 85.1758 33.2676C85.1419 32.2858 85.125 31.2786 85.125 30.2461V27.123C85.125 25.7012 85.1842 24.2285 85.3027 22.7051C85.4212 21.1647 85.5482 19.6836 85.6836 18.2617C85.6836 18.2109 85.6921 18.1517 85.709 18.084C85.7259 18.0163 85.7344 17.9655 85.7344 17.9316C85.7513 17.7454 85.7767 17.5423 85.8105 17.3223C85.8444 17.1022 85.8952 16.9076 85.9629 16.7383C86.0475 16.5521 86.1576 16.3997 86.293 16.2812C86.4453 16.1628 86.64 16.1035 86.877 16.1035C87.1478 16.1035 87.4017 16.1628 87.6387 16.2812C87.8926 16.3828 88.1126 16.5267 88.2988 16.7129C88.485 16.8822 88.6289 17.0938 88.7305 17.3477C88.849 17.6016 88.9082 17.8639 88.9082 18.1348C88.9082 18.4225 88.8997 18.7441 88.8828 19.0996C88.8659 19.4382 88.8405 19.7598 88.8066 20.0645C88.8066 20.1491 88.7982 20.2422 88.7812 20.3438C88.7812 20.4453 88.7728 20.5384 88.7559 20.623C88.9928 20.1491 89.2637 19.6582 89.5684 19.1504C89.873 18.6257 90.2201 18.1517 90.6094 17.7285C91.0156 17.2884 91.4557 16.9329 91.9297 16.6621C92.4206 16.3913 92.9622 16.2559 93.5547 16.2559C94.0456 16.2559 94.4518 16.332 94.7734 16.4844C95.0951 16.6367 95.349 16.8568 95.5352 17.1445C95.7383 17.4154 95.8737 17.737 95.9414 18.1094C96.026 18.4818 96.0684 18.8796 96.0684 19.3027C96.0684 19.8783 96.0514 20.4622 96.0176 21.0547C95.9837 21.6302 95.9499 22.2057 95.916 22.7812C95.8652 23.3737 95.8229 23.9577 95.7891 24.5332C95.7552 25.1087 95.7383 25.6927 95.7383 26.2852C95.7383 26.9961 95.7552 27.7324 95.7891 28.4941C95.8229 29.2389 95.8737 29.9583 95.9414 30.6523C96.0091 31.3294 96.0853 31.9473 96.1699 32.5059C96.2546 33.0475 96.3392 33.4707 96.4238 33.7754C96.4915 34.0293 96.5592 34.3255 96.627 34.6641C96.7116 34.9857 96.7878 35.3242 96.8555 35.6797C96.9401 36.0182 97.0078 36.3483 97.0586 36.6699C97.1094 36.9915 97.1348 37.2793 97.1348 37.5332C97.1348 37.9056 96.9824 38.1426 96.6777 38.2441C96.39 38.3457 96.1022 38.3965 95.8145 38.3965C95.5267 38.3965 95.1966 38.3711 94.8242 38.3203C94.4688 38.2865 94.1471 38.1934 93.8594 38.041C93.5039 37.7871 93.2669 37.4316 93.1484 36.9746C93.0469 36.5176 92.9792 36.069 92.9453 35.6289L92.8691 34.9434C92.8184 34.5371 92.7507 34.0039 92.666 33.3438C92.5814 32.6836 92.4967 31.9557 92.4121 31.1602C92.3444 30.3646 92.2852 29.5436 92.2344 28.6973C92.1836 27.834 92.1582 26.9961 92.1582 26.1836C92.1582 25.4557 92.1836 24.7533 92.2344 24.0762C92.3021 23.3991 92.3698 22.7135 92.4375 22.0195C92.4714 21.6641 92.4967 21.3763 92.5137 21.1562C92.5306 20.9362 92.556 20.6484 92.5898 20.293C92.2513 20.8346 91.9128 21.4694 91.5742 22.1973C91.2357 22.9251 90.9141 23.6868 90.6094 24.4824C90.3047 25.2611 90.0254 26.0228 89.7715 26.7676C89.5345 27.5124 89.3483 28.1641 89.2129 28.7227L89.0605 29.2812C88.9759 29.5521 88.8997 29.8229 88.832 30.0938C88.7812 30.3646 88.7559 30.6185 88.7559 30.8555C88.7559 31.1602 88.7728 31.5156 88.8066 31.9219C88.8405 32.3112 88.8828 32.6836 88.9336 33.0391C88.9844 33.4622 89.0436 33.8939 89.1113 34.334C89.1113 34.3678 89.1283 34.4779 89.1621 34.6641C89.196 34.8503 89.2298 35.0703 89.2637 35.3242C89.2975 35.5781 89.3229 35.849 89.3398 36.1367C89.3737 36.4076 89.3906 36.653 89.3906 36.873Z" fill="#2400FF"/>
</svg>
