<svg width="39" height="38" viewBox="0 0 39 38" fill="none" xmlns="http://www.w3.org/2000/svg">
<path d="M18.7793 36.5938C18.7793 36.8307 18.6693 37.0339 18.4492 37.2031C18.2292 37.3724 17.9668 37.5078 17.6621 37.6094C17.3574 37.7109 17.0443 37.7871 16.7227 37.8379C16.418 37.8887 16.1725 37.9141 15.9863 37.9141C15.9355 37.9141 15.8932 37.9225 15.8594 37.9395C15.8255 37.9564 15.7832 37.9479 15.7324 37.9141C15.3939 37.8464 15.0977 37.7279 14.8438 37.5586C14.5898 37.4062 14.3613 37.2201 14.1582 37C13.9551 36.7969 13.7604 36.5684 13.5742 36.3145C13.388 36.0605 13.1934 35.7982 12.9902 35.5273C11.6361 33.8177 10.3581 32.0658 9.15625 30.2715C7.97135 28.4603 6.89648 26.556 5.93164 24.5586L5.62695 24.9141V34.7148C5.62695 34.901 5.61849 35.1126 5.60156 35.3496C5.58464 35.5697 5.54232 35.7812 5.47461 35.9844C5.4069 36.1875 5.30534 36.3568 5.16992 36.4922C5.03451 36.6276 4.84831 36.6953 4.61133 36.6953C4.06966 36.6953 3.62109 36.6107 3.26562 36.4414C2.92708 36.2721 2.65625 36.0436 2.45312 35.7559C2.26693 35.4512 2.13997 35.0957 2.07227 34.6895C2.00456 34.2832 1.9707 33.8346 1.9707 33.3438C1.9707 31.7526 1.95378 30.1699 1.91992 28.5957C1.88607 27.0215 1.86914 25.4388 1.86914 23.8477C1.86914 23.1536 1.89453 22.4766 1.94531 21.8164C1.99609 21.1562 2.02148 20.4792 2.02148 19.7852C2.02148 17.3646 1.92839 14.9609 1.74219 12.5742C1.55599 10.1706 1.36133 7.76693 1.1582 5.36328C1.10742 4.80469 1.04818 4.24609 0.980469 3.6875C0.929688 3.12891 0.904297 2.57031 0.904297 2.01172C0.904297 1.60547 1.03971 1.33464 1.31055 1.19922C1.58138 1.0638 1.86914 0.996094 2.17383 0.996094C3.12174 0.996094 3.86654 1.19076 4.4082 1.58008C4.94987 1.9694 5.2207 2.67188 5.2207 3.6875C5.2207 5.22786 5.27148 6.73438 5.37305 8.20703C5.45768 10.0521 5.50846 11.8802 5.52539 13.6914C5.55924 15.5026 5.5931 17.3307 5.62695 19.1758C7.45508 16.8906 8.89388 14.4362 9.94336 11.8125C10.9928 9.17188 11.7884 6.41276 12.3301 3.53516C12.347 3.36589 12.3724 3.1543 12.4062 2.90039C12.457 2.64648 12.5163 2.40104 12.584 2.16406C12.6686 1.91016 12.7786 1.69857 12.9141 1.5293C13.0664 1.3431 13.2611 1.25 13.498 1.25C13.7689 1.25 14.0482 1.30078 14.3359 1.40234C14.6237 1.48698 14.8776 1.61393 15.0977 1.7832C15.3346 1.95247 15.5208 2.1556 15.6562 2.39258C15.8086 2.62956 15.8848 2.89193 15.8848 3.17969C15.8848 3.92448 15.7917 4.64388 15.6055 5.33789C15.4362 6.0319 15.2585 6.73438 15.0723 7.44531C14.7168 8.88411 14.3359 10.2129 13.9297 11.4316C13.5404 12.6504 13.0833 13.8268 12.5586 14.9609C12.0508 16.0781 11.4583 17.1868 10.7812 18.2871C10.1042 19.3704 9.30013 20.4961 8.36914 21.6641L9.43555 23.7969C10.3327 25.5065 11.3314 27.1738 12.4316 28.7988C13.5319 30.4069 14.7337 31.9388 16.0371 33.3945C16.4772 33.8854 16.9258 34.3424 17.3828 34.7656C17.8568 35.1719 18.2715 35.6458 18.627 36.1875C18.7285 36.2891 18.7793 36.4245 18.7793 36.5938Z" fill="url(#paint0_linear_178_2)"/>
<path d="M38.6805 34.1562C38.6805 34.6471 38.5535 35.1042 38.2996 35.5273C38.0626 35.9505 37.7156 36.2552 37.2586 36.4414C37.1063 36.5091 36.7762 36.5684 36.2684 36.6191C35.7605 36.653 35.1512 36.6868 34.4402 36.7207C33.7293 36.7546 32.9676 36.7799 32.1551 36.7969C31.3426 36.8138 30.5639 36.8307 29.8191 36.8477C29.0743 36.8477 28.4142 36.8477 27.8387 36.8477C27.2632 36.8477 26.8484 36.8477 26.5945 36.8477C26.493 37.0339 26.3491 37.1862 26.1629 37.3047C25.9767 37.4401 25.7651 37.5078 25.5281 37.5078C25.3081 37.5078 25.0457 37.4486 24.741 37.3301C24.4363 37.2285 24.1401 37.0846 23.8523 36.8984C23.5815 36.7122 23.3445 36.5007 23.1414 36.2637C22.9383 36.0267 22.8367 35.7812 22.8367 35.5273C22.8367 35.3073 22.8875 35.0195 22.9891 34.6641C23.0906 34.3086 23.2091 33.9447 23.3445 33.5723C23.4969 33.1829 23.6408 32.8021 23.7762 32.4297C23.9116 32.0573 24.0216 31.7526 24.1063 31.5156L29.1844 16.6875L31.8758 8.91797C32.1805 8.05469 32.4682 7.19141 32.7391 6.32812C33.0268 5.44792 33.3654 4.58464 33.7547 3.73828C33.213 3.77214 32.6714 3.79753 32.1297 3.81445C31.588 3.83138 31.0464 3.83984 30.5047 3.83984C30.3523 3.83984 30.0815 3.83984 29.6922 3.83984C29.3198 3.83984 28.8882 3.83984 28.3973 3.83984C27.9233 3.82292 27.4155 3.81445 26.8738 3.81445C26.3491 3.79753 25.8497 3.7806 25.3758 3.76367C24.9188 3.72982 24.521 3.69596 24.1824 3.66211C23.8608 3.62826 23.6661 3.58594 23.5984 3.53516C23.3615 3.41667 23.243 3.23047 23.243 2.97656C23.243 2.48568 23.4038 2.10482 23.7254 1.83398C24.047 1.54622 24.4363 1.33464 24.8934 1.19922C25.3504 1.0638 25.8243 0.979167 26.3152 0.945312C26.823 0.911458 27.2547 0.894531 27.6102 0.894531C28.0164 0.894531 28.4227 0.911458 28.8289 0.945312C29.2352 0.979167 29.6414 0.996094 30.0477 0.996094C30.894 0.996094 31.7319 0.96224 32.5613 0.894531C33.3908 0.826823 34.2117 0.792969 35.0242 0.792969C35.312 0.792969 35.6251 0.826823 35.9637 0.894531C36.3022 0.945312 36.6069 1.04688 36.8777 1.19922C37.1655 1.33464 37.4025 1.52083 37.5887 1.75781C37.7749 1.99479 37.868 2.29948 37.868 2.67188C37.868 2.97656 37.8087 3.25586 37.6902 3.50977C37.5717 3.74674 37.4448 4.00911 37.3094 4.29688C36.7169 5.73568 36.1922 7.18294 35.7352 8.63867C35.2781 10.0775 34.8042 11.5247 34.3133 12.9805C33.1453 16.4844 32.0027 19.9798 30.8855 23.4668C29.7853 26.9368 28.6596 30.4323 27.5086 33.9531C28.2026 33.9193 28.8966 33.8939 29.5906 33.877C30.2846 33.8431 30.9786 33.8008 31.6727 33.75C32.6375 33.6654 33.6023 33.5553 34.5672 33.4199C35.532 33.2676 36.5138 33.1914 37.5125 33.1914C37.8172 33.1914 38.088 33.2676 38.325 33.4199C38.562 33.5553 38.6805 33.8008 38.6805 34.1562Z" fill="url(#paint1_linear_178_2)"/>
<defs>
<linearGradient id="paint0_linear_178_2" x1="19" y1="0" x2="19" y2="38" gradientUnits="userSpaceOnUse">
<stop stop-color="#FF06C8"/>
<stop offset="0.495" stop-color="#00D1FF"/>
<stop offset="1" stop-color="#990000"/>
</linearGradient>
<linearGradient id="paint1_linear_178_2" x1="19" y1="0" x2="19" y2="38" gradientUnits="userSpaceOnUse">
<stop offset="0.04" stop-color="#7CFC00"/>
<stop offset="0.475" stop-color="#FF0000"/>
<stop offset="0.675" stop-color="#002B99"/>
</linearGradient>
</defs>
</svg>
